<svg width="106" height="112" viewBox="0 0 106 112" fill="none" xmlns="http://www.w3.org/2000/svg">
<path fill-rule="evenodd" clip-rule="evenodd" d="M80.2187 0C95.25 0 105 10.5 105 26.6875V85.3125C105 101.5 95.25 112 80.2187 112H25.7813C10.75 112 1 101.5 1 85.3125V26.6875C1 10.5 10.75 0 25.7813 0H80.2187Z" fill="url(#paint0_linear_1_56)"/>
<path d="M1.43332 56.4667H104.567" stroke="#E95E00" stroke-linecap="square"/>
<path fill-rule="evenodd" clip-rule="evenodd" d="M46.0667 93.3389C46.0667 94.3665 45.2892 95.2 44.3282 95.2H35.6718C34.7117 95.2 33.9333 94.3721 33.9333 93.3389V18.6607C33.9333 17.633 34.7108 16.8 35.6718 16.8H44.3282C45.2883 16.8 46.0667 17.6274 46.0667 18.6607V49.0398L59.2019 18.5006C59.6058 17.5614 60.7088 16.8 61.6677 16.8H70.1912C71.6285 16.8 72.3158 17.9459 71.7265 19.3585L57.2389 54.0933C57.2322 54.1092 74.1808 91.8473 74.1808 91.8473C75.0127 93.6964 74.1372 95.2 72.2229 95.2H63.6169C62.664 95.2 61.5415 94.4459 61.1212 93.5163L46.0667 60.2034V93.3389Z" fill="white"/>
<mask id="mask0_1_56" style="mask-type:alpha" maskUnits="userSpaceOnUse" x="33" y="16" width="42" height="80">
<path fill-rule="evenodd" clip-rule="evenodd" d="M46.0667 93.3389C46.0667 94.3665 45.2892 95.2 44.3282 95.2H35.6718C34.7117 95.2 33.9333 94.3721 33.9333 93.3389V18.6607C33.9333 17.633 34.7108 16.8 35.6718 16.8H44.3282C45.2883 16.8 46.0667 17.6274 46.0667 18.6607V49.0398L59.2019 18.5006C59.6058 17.5614 60.7088 16.8 61.6677 16.8H70.1912C71.6285 16.8 72.3158 17.9459 71.7265 19.3585L57.2389 54.0933C57.2322 54.1092 74.1808 91.8473 74.1808 91.8473C75.0127 93.6964 74.1372 95.2 72.2229 95.2H63.6169C62.664 95.2 61.5415 94.4459 61.1212 93.5163L46.0667 60.2034V93.3389Z" fill="white"/>
</mask>
<g mask="url(#mask0_1_56)">
<path d="M34.3667 56.4667H58.6333" stroke="#E6E6EB" stroke-linecap="square"/>
</g>
<defs>
<linearGradient id="paint0_linear_1_56" x1="14.2507" y1="0" x2="14.2507" y2="83.4601" gradientUnits="userSpaceOnUse">
<stop stop-color="#F66F00"/>
<stop offset="1" stop-color="#FE8300"/>
</linearGradient>
</defs>
</svg>
